<svg width="20" height="24" viewBox="0 0 20 24" fill="none" xmlns="http://www.w3.org/2000/svg">
<path d="M6.5 3.83333H4.16667C3.54783 3.83333 2.95433 4.07917 2.51675 4.51675C2.07916 4.95434 1.83333 5.54783 1.83333 6.16667V20.1667C1.83333 20.7855 2.07916 21.379 2.51675 21.8166C2.95433 22.2542 3.54783 22.5 4.16667 22.5H15.8333C16.4522 22.5 17.0457 22.2542 17.4832 21.8166C17.9208 21.379 18.1667 20.7855 18.1667 20.1667V6.16667C18.1667 5.54783 17.9208 4.95434 17.4832 4.51675C17.0457 4.07917 16.4522 3.83333 15.8333 3.83333H13.5M6.5 3.83333C6.5 4.45217 6.74583 5.04566 7.18342 5.48325C7.621 5.92083 8.21449 6.16667 8.83333 6.16667H11.1667C11.7855 6.16667 12.379 5.92083 12.8166 5.48325C13.2542 5.04566 13.5 4.45217 13.5 3.83333M6.5 3.83333C6.5 3.21449 6.74583 2.621 7.18342 2.18342C7.621 1.74583 8.21449 1.5 8.83333 1.5H11.1667C11.7855 1.5 12.379 1.74583 12.8166 2.18342C13.2542 2.621 13.5 3.21449 13.5 3.83333M10 12H13.5M10 16.6667H13.5M6.5 12H6.51167M6.5 16.6667H6.51167" stroke="#A6AABA" stroke-width="1.83333" stroke-linecap="round" stroke-linejoin="round"/>
</svg>
